<svg xmlns="http://www.w3.org/2000/svg" width="256" height="256" viewBox="0 0 100 100"><rect width="100" height="100" rx="20" fill="#e76ec2"></rect><path fill="#fff" d="M63.90 74.88L49.86 54.63L33.30 77.77Q32.41 77.94 31.50 77.94L31.50 77.94Q29.70 77.94 28.62 77.09Q27.54 76.23 27.54 74.70L27.54 74.70Q27.54 73.53 28.13 72.55Q28.71 71.55 29.61 70.30L29.61 70.30L45.45 49.59L27.90 25.66Q28.35 24.13 29.39 23.09Q30.42 22.05 32.22 22.05L32.22 22.05Q33.66 22.05 34.66 22.91Q35.64 23.77 36.72 25.30L36.72 25.30L50.05 44.38L65.97 22.33Q66.42 22.23 66.88 22.19Q67.32 22.15 67.86 22.15L67.86 22.15Q69.75 22.15 70.70 23.05Q71.64 23.95 71.64 25.30L71.64 25.30Q71.64 26.28 71.15 27.23Q70.66 28.17 69.94 29.16L69.94 29.16Q66.16 34.20 62.28 39.24Q58.41 44.28 54.36 49.41L54.36 49.41L72.45 74.44Q72.00 75.97 71.01 76.95Q70.03 77.94 68.31 77.94L68.31 77.94Q66.88 77.94 65.93 77.22Q64.98 76.50 63.90 74.88L63.90 74.88Z"></path></svg>