<svg t="1696655935281" class="icon" viewBox="0 0 1024 1024" version="1.1" xmlns="http://www.w3.org/2000/svg" p-id="11229" width="1024" height="1024"><path d="M445.001585 317.442886c-1.37123-4.068665 0.844228-5.756097 2.351558-7.895831 2.697435-3.796466 11.429307-4.490268 7.232728-11.633968-2.02717-3.495614-7.181563-5.304819-11.347442-4.248767-6.698562 1.687432-3.405563 7.564279-3.812839 11.93482-0.89744 10.216689-20.698414 26.4013-30.507828 25.075095-2.509147-0.390903-3.932566-2.410909-3.300162-4.459568 0.737804-2.351558 2.328022-4.612041 4.106528-6.330172 5.184069-5.123694 18.519796-5.063319 14.987343-15.219633-4.377704-12.507872-9.915837-25.798573-24.322965-31.524994-34.184567-13.623275-68.165496-27.456329-100.203166-45.932122-20.479427-11.784394-35.563984-8.197706-51.092655 9.886161-8.725732 10.126638-20.36584 0.934279-29.829376 5.365194-0.195451 0.029676-1.914606-2.320858-2.328022-3.767813-7.066953-24.261567 9.508561-46.6249 34.863019-47.52848 13.68979-0.542352 27.373441-0.994654 41.779545 1.084705 0.2415-9.493212-8.023744-16.726963-3.616364-31.072693 5.493108 24.111141 20.177552 34.478256 37.883819 42.193984 10.382465 4.520967 18.821671 1.50733 22.724561-7.173376 3.699252-8.228405-4.565992-12.597923-11.219529-16.214287-16.003486-8.619308-31.012318-18.383696-38.35147-36.165688-2.539846-6.178723-5.229095-12.417821-2.200108-22.995737 7.843642 24.77322 21.601994 40.204677 44.206828 47.951105-10.638291-17.60189-30.153764-31.645744-22.423709-58.319244 4.64888 8.499581 5.802146 17.028838 11.414981 22.905686 3.14155 3.284813 4.866844 9.552563 10.578939 8.046257 5.869684-1.597381 4.279467-7.776104 4.54348-12.266371 0.414439-6.330172-0.112564-12.688997 0.361227-19.017122 0.459464-6.239098 1.137916-12.658298 8.996908-16.485463 1.272993 8.558933 2.583848 16.244986 10.962679 21.217231 5.070482 3.013637 7.375991 9.674337 12.695137 0.421602 3.970428-6.9022 5.349845 4.611018 10.254551 1.62808-7.895831-17.48114-11.919471-35.412534-0.904603-55.516408 4.875031 9.162684 2.290159 21.067828 13.834076 23.931039 4.588505-3.737114 4.02364-11.090593 10.902304-14.375405 5.063319 8.528234 8.213056 18.776645 20.968567 20.132526 6.178723 0.632403 11.008728 1.687432 15.943111-2.742461 27.365254-24.864294 70.450539-14.105253 96.257298 6.329149 2.908236 2.260483 5.114484 5.484921 8.143471 7.503904 8.967232 5.907547 20.246113 10.518564 29.453822 8.499581 6.795776-1.476631 4.157693-14.798031 5.786797-22.814612 1.144056-5.605671 0.217964-11.632945 0.948605-17.419741 2.087545-16.335037-0.106424-29.475312-17.630542-37.733393-6.260587-2.923586-19.868513-7.02295-12.160971-21.037129 6.404873-11.663644 22.370497-13.743002 33.31885-3.224438 12.33391 11.874445 18.972097 26.52205 19.130709 43.821041 0.233314 28.481681 1.627057 56.841589 5.643534 85.202521 2.644223 18.806321-2.65241 38.275745 5.198395 57.354266 3.390213 8.197706-2.313695 17.20894-8.731872 24.230867-20.757766 22.664186-21.35333 48.222281-9.419534 74.834382 7.121188 15.85306 15.650445 31.103392 23.546276 46.6249 6.886851 13.532201 5.184069 26.069749-2.583848 38.999223-29.942963 49.940412-44.38693 103.406115-35.667338 161.964812 1.627057 10.940167 7.519254 19.620873 12.506848 28.842909 27.26804 50.452065 51.160193 103.435791 61.008492 159.222351 7.895831 44.756343 24.819269 84.659145 41.175795 125.588323 22.75526 56.96234 67.367317 97.860818 105.546871 143.550417 3.540639 4.249791 9.959839 6.208399 4.716418 13.924127-4.603855 6.721075-9.169847 11.362792-17.96414 9.31311-11.270694-2.62171-19.053961-11.060917-28.337395-16.96744-12.009522-7.686053-23.372314-15.642259-38.554084-17.118889-13.433964-1.295506-19.084661-11.45182-16.087397-24.111141 2.953262-12.507872-0.466628-22.36231-6.683213-32.881898-18.23327-30.981618-36.3243-61.994959-57.497529-91.108021-14.805194-20.344351-24.538883-42.948161-29.739325-67.661006-4.78498-22.99676-13.923104-44.094264-27.471678-63.562665-15.717983-22.485107-30.584576-45.630247-45.366234-68.77641-5.967922-9.373485-10.556427-9.946536-17.405415-0.753153-18.256806 24.623817-38.291095 47.76998-58.431807 70.885444-13.397125 15.371082-28.932959 24.050766-48.870034 29.506011-87.432305 23.930015-158.151973 71.458495-204.174146 151.718447-1.574868 2.772136-3.074012 5.545296-4.739954 8.227382-1.385557 2.260483-2.961448 4.761444-6.027274 4.370541-3.850701-0.511653-4.935406-3.736091-5.109368-6.962575-0.203638-3.64604-0.36839-7.503904 0.429789-11.030218 6.102998-26.671453 14.602579-52.862975 12.281721-81.012082-0.86674-10.69969 7.873318-15.009855 17.193591-13.834076 16.471137 2.169409 28.39777-5.184069 39.73805-15.461133 21.555945-19.500123 43.195801-38.878472 65.129346-57.896618 17.442254-15.159258 36.972053-26.249851 60.442604-29.233811 13.697977-1.74883 22.874987-9.463536 29.083385-21.760606 13.803377-27.365254 28.414143-54.18918 47.800679-78.269621 8.724709-10.850116 13.366426-23.116487 10.562567-38.246069-3.804652-20.464077 1.937119-38.396495 18.656919-52.471049 24.64633-20.826328 32.211633-46.925752 23.425525-78.33102-7.676843-27.425629-13.803377-55.30356-20.938891-82.911338-6.885827-26.6428-32.904411-37.099966-55.477522-22.693862C450.84057 315.061652 449.755866 319.342142 445.001585 317.442886z" fill="#ffffff" p-id="11230"></path></svg>